<?xml version="1.0" encoding="UTF-8" standalone="no"?>
<svg
   xmlns:osb="http://www.openswatchbook.org/uri/2009/osb"
   xmlns:dc="http://purl.org/dc/elements/1.1/"
   xmlns:cc="http://creativecommons.org/ns#"
   xmlns:rdf="http://www.w3.org/1999/02/22-rdf-syntax-ns#"
   xmlns:svg="http://www.w3.org/2000/svg"
   xmlns="http://www.w3.org/2000/svg"
   xmlns:sodipodi="http://sodipodi.sourceforge.net/DTD/sodipodi-0.dtd"
   xmlns:inkscape="http://www.inkscape.org/namespaces/inkscape"
   width="100.8446mm"
   height="55.131912mm"
   viewBox="0 0 100.84461 55.131912"
   version="1.1"
   id="svg8"
   inkscape:version="1.0 (6e3e5246a0, 2020-05-07)"
   sodipodi:docname="1D_ponton_fond.svg">
  <defs
     id="defs2">
    <marker
       inkscape:isstock="true"
       style="overflow:visible"
       id="marker4691"
       refX="0"
       refY="0"
       orient="auto"
       inkscape:stockid="DotM">
      <path
         transform="matrix(0.4,0,0,0.4,2.96,0.4)"
         style="fill:#0000fd;fill-opacity:1;fill-rule:evenodd;stroke:#0000fd;stroke-width:1pt;stroke-opacity:1"
         d="m -2.5,-1 c 0,2.76 -2.24,5 -5,5 -2.76,0 -5,-2.24 -5,-5 0,-2.76 2.24,-5 5,-5 2.76,0 5,2.24 5,5 z"
         id="path4689" />
    </marker>
    <linearGradient
       id="linearGradient4422"
       osb:paint="solid">
      <stop
         style="stop-color:#9b9b9b;stop-opacity:1;"
         offset="0"
         id="stop4420" />
    </linearGradient>
    <linearGradient
       id="linearGradient4416"
       osb:paint="solid">
      <stop
         style="stop-color:#9b9b9b;stop-opacity:1;"
         offset="0"
         id="stop4414" />
    </linearGradient>
    <linearGradient
       id="linearGradient4410"
       osb:paint="solid">
      <stop
         style="stop-color:#000000;stop-opacity:1;"
         offset="0"
         id="stop4408" />
    </linearGradient>
    <rect
       x="30.427082"
       y="43.65625"
       width="10.583333"
       height="3.96875"
       id="rect4319" />
    <marker
       inkscape:stockid="Arrow2Lend"
       orient="auto"
       refY="0"
       refX="0"
       id="marker4105"
       style="overflow:visible"
       inkscape:isstock="true">
      <path
         id="path4103"
         style="fill:#000000;fill-opacity:0.5;fill-rule:evenodd;stroke:#000000;stroke-width:0.625;stroke-linejoin:round;stroke-opacity:0.5"
         d="M 8.7185878,4.0337352 -2.2072895,0.01601326 8.7185884,-4.0017078 c -1.7454984,2.3720609 -1.7354408,5.6174519 -6e-7,8.035443 z"
         transform="matrix(-1.1,0,0,-1.1,-1.1,0)" />
    </marker>
    <marker
       inkscape:stockid="Arrow2Lend"
       orient="auto"
       refY="0"
       refX="0"
       id="marker4029"
       style="overflow:visible"
       inkscape:isstock="true">
      <path
         id="path4027"
         style="fill:#000000;fill-opacity:1;fill-rule:evenodd;stroke:#000000;stroke-width:0.625;stroke-linejoin:round;stroke-opacity:1"
         d="M 8.7185878,4.0337352 -2.2072895,0.01601326 8.7185884,-4.0017078 c -1.7454984,2.3720609 -1.7354408,5.6174519 -6e-7,8.035443 z"
         transform="matrix(-1.1,0,0,-1.1,-1.1,0)" />
    </marker>
    <inkscape:path-effect
       effect="spiro"
       id="path-effect4025"
       is_visible="true"
       lpeversion="1" />
    <inkscape:path-effect
       effect="spiro"
       id="path-effect3875"
       is_visible="true"
       lpeversion="1" />
    <inkscape:path-effect
       effect="spiro"
       id="path-effect3871"
       is_visible="true"
       lpeversion="1" />
    <marker
       inkscape:stockid="DotM"
       orient="auto"
       refY="0"
       refX="0"
       id="marker3771"
       style="overflow:visible"
       inkscape:isstock="true"
       inkscape:collect="always">
      <path
         id="path3769"
         d="m -2.5,-1 c 0,2.76 -2.24,5 -5,5 -2.76,0 -5,-2.24 -5,-5 0,-2.76 2.24,-5 5,-5 2.76,0 5,2.24 5,5 z"
         style="fill:#0000ff;fill-opacity:1;fill-rule:evenodd;stroke:#0000ff;stroke-width:1pt;stroke-opacity:1"
         transform="matrix(0.4,0,0,0.4,2.96,0.4)" />
    </marker>
    <marker
       inkscape:stockid="DotL"
       orient="auto"
       refY="0"
       refX="0"
       id="DotL"
       style="overflow:visible"
       inkscape:isstock="true">
      <path
         id="path959"
         d="m -2.5,-1 c 0,2.76 -2.24,5 -5,5 -2.76,0 -5,-2.24 -5,-5 0,-2.76 2.24,-5 5,-5 2.76,0 5,2.24 5,5 z"
         style="fill:#000000;fill-opacity:1;fill-rule:evenodd;stroke:#000000;stroke-width:1pt;stroke-opacity:1"
         transform="matrix(0.8,0,0,0.8,5.92,0.8)" />
    </marker>
    <inkscape:path-effect
       effect="spiro"
       id="path-effect3627"
       is_visible="true"
       lpeversion="1" />
    <inkscape:path-effect
       effect="spiro"
       id="path-effect3623"
       is_visible="true"
       lpeversion="1" />
    <linearGradient
       id="linearGradient3441"
       osb:paint="solid">
      <stop
         style="stop-color:#9b9b9b;stop-opacity:1;"
         offset="0"
         id="stop3439" />
    </linearGradient>
    <linearGradient
       id="linearGradient3423"
       osb:paint="solid">
      <stop
         style="stop-color:#9b9b9b;stop-opacity:1;"
         offset="0"
         id="stop3421" />
    </linearGradient>
    <marker
       inkscape:isstock="true"
       style="overflow:visible"
       id="marker1336"
       refX="0"
       refY="0"
       orient="auto"
       inkscape:stockid="Arrow2Lend"
       inkscape:collect="always">
      <path
         transform="matrix(-1.1,0,0,-1.1,-1.1,0)"
         d="M 8.7185878,4.0337352 -2.2072895,0.01601326 8.7185884,-4.0017078 c -1.7454984,2.3720609 -1.7354408,5.6174519 -6e-7,8.035443 z"
         style="fill:#000000;fill-opacity:1;fill-rule:evenodd;stroke:#000000;stroke-width:0.625;stroke-linejoin:round;stroke-opacity:1"
         id="path1334" />
    </marker>
    <inkscape:path-effect
       effect="spiro"
       id="path-effect1332"
       is_visible="true"
       lpeversion="1" />
    <marker
       inkscape:stockid="Arrow2Lend"
       orient="auto"
       refY="0"
       refX="0"
       id="Arrow2Lend"
       style="overflow:visible"
       inkscape:isstock="true"
       inkscape:collect="always">
      <path
         id="path919"
         style="fill:#ce171b;fill-opacity:1;fill-rule:evenodd;stroke:#ce171b;stroke-width:0.625;stroke-linejoin:round;stroke-opacity:1"
         d="M 8.7185878,4.0337352 -2.2072895,0.01601326 8.7185884,-4.0017078 c -1.7454984,2.3720609 -1.7354408,5.6174519 -6e-7,8.035443 z"
         transform="matrix(-1.1,0,0,-1.1,-1.1,0)" />
    </marker>
    <inkscape:path-effect
       effect="spiro"
       id="path-effect896"
       is_visible="true"
       lpeversion="1" />
    <inkscape:path-effect
       effect="spiro"
       id="path-effect892"
       is_visible="true"
       lpeversion="1" />
    <inkscape:path-effect
       effect="spiro"
       id="path-effect888"
       is_visible="true"
       lpeversion="1" />
    <linearGradient
       id="linearGradient880"
       osb:paint="solid">
      <stop
         style="stop-color:#580000;stop-opacity:1;"
         offset="0"
         id="stop878" />
    </linearGradient>
  </defs>
  <sodipodi:namedview
     id="base"
     pagecolor="#ffffff"
     bordercolor="#666666"
     borderopacity="1.0"
     inkscape:pageopacity="0.0"
     inkscape:pageshadow="2"
     inkscape:zoom="3.959798"
     inkscape:cx="130.21039"
     inkscape:cy="149.52016"
     inkscape:document-units="mm"
     inkscape:current-layer="layer1"
     inkscape:document-rotation="0"
     showgrid="true"
     inkscape:window-width="1920"
     inkscape:window-height="1046"
     inkscape:window-x="0"
     inkscape:window-y="1114"
     inkscape:window-maximized="1"
     inkscape:snap-to-guides="false"
     fit-margin-top="0"
     fit-margin-left="0"
     fit-margin-right="0"
     fit-margin-bottom="0"
     inkscape:snap-grids="false">
    <inkscape:grid
       type="xygrid"
       id="grid48"
       originx="-29.066781"
       originy="-12.783842" />
  </sodipodi:namedview>
  <metadata
     id="metadata5">
    <rdf:RDF>
      <cc:Work
         rdf:about="">
        <dc:format>image/svg+xml</dc:format>
        <dc:type
           rdf:resource="http://purl.org/dc/dcmitype/StillImage" />
        <dc:title />
      </cc:Work>
    </rdf:RDF>
  </metadata>
  <g
     inkscape:label="Calque 1"
     inkscape:groupmode="layer"
     id="layer1"
     transform="translate(-29.066774,-12.783844)">
    <rect
       style="fill:#9b9b9b;fill-opacity:1;fill-rule:evenodd;stroke:#000000;stroke-width:0.138654;stroke-miterlimit:4;stroke-dasharray:none;stroke-opacity:1"
       id="rect46"
       width="15.751373"
       height="42.228138"
       x="72.760406"
       y="22.594776" />
    <path
       style="fill:none;stroke:#0000ff;stroke-width:0.256912px;stroke-linecap:butt;stroke-linejoin:miter;stroke-opacity:1;marker-end:url(#marker3771)"
       d="m 29.104168,31.749997 c 3.565225,-1.044619 7.437955,-1.01424 10.986353,0.08618 2.134663,0.661996 4.133198,1.693252 6.204352,2.5331 2.071155,0.839849 4.278297,1.496722 6.508397,1.349473 2.188601,-0.144509 4.245563,-1.050028 6.244851,-1.952082 1.999289,-0.902055 4.043157,-1.827625 6.228362,-2.016668 2.717605,-0.235101 5.517944,0.754918 7.483927,2.645833"
       id="path886"
       inkscape:path-effect="#path-effect888"
       inkscape:original-d="m 29.104168,31.749997 c 5.405308,-1.322652 5.581542,1.409358 10.986353,0.08618 5.404809,-1.323181 10.218357,1.237004 12.712749,3.882573 2.494393,2.645569 8.315723,-2.645569 12.473213,-3.96875 4.157488,-1.323181 4.989533,1.764154 7.483927,2.645833"
       sodipodi:nodetypes="csssc" />
    <path
       style="fill:none;stroke:#0000fd;stroke-width:0.274;stroke-linecap:butt;stroke-linejoin:miter;stroke-opacity:1;stroke-miterlimit:4;stroke-dasharray:none;marker-start:url(#marker4691)"
       d="M 88.63541,38.364583 C 90.493715,35.19622 93.594313,32.77909 97.12033,31.75 c 3.20215,-0.934566 6.64673,-0.741289 9.89906,0 3.78407,0.862485 7.43683,2.45442 11.31322,2.645833 4.09278,0.202098 8.24367,-1.254058 11.31322,-3.96875"
       id="path890"
       inkscape:path-effect="#path-effect892"
       inkscape:original-d="m 88.63541,38.364583 c 2.772358,-2.262566 5.656892,-4.409459 8.48492,-6.614583 2.828011,-2.205125 6.59965,2.64e-4 9.89906,0 3.2994,-2.65e-4 7.54243,1.764154 11.31322,2.645833 3.77079,0.881679 7.54243,-2.645569 11.31322,-3.96875" />
    <path
       style="fill:none;fill-opacity:1;stroke:#000000;stroke-width:0.165286;stroke-linecap:butt;stroke-linejoin:miter;stroke-miterlimit:4;stroke-dasharray:none;stroke-dashoffset:0;stroke-opacity:1;marker-end:url(#marker1336);paint-order:normal"
       d="M 80.697917,64.822917 V 14.552082"
       id="path1330"
       inkscape:path-effect="#path-effect1332"
       inkscape:original-d="m 80.697917,64.822917 c 2.64e-4,-16.756681 2.64e-4,-33.513627 0,-50.270835" />
    <path
       style="fill:none;stroke:#000000;stroke-width:0.160216;stroke-linecap:butt;stroke-linejoin:miter;stroke-miterlimit:4;stroke-dasharray:0.320433, 0.160216;stroke-dashoffset:0;stroke-opacity:0.5"
       d="M 29.104167,34.395833 H 72.76041"
       id="path3869"
       inkscape:path-effect="#path-effect3871"
       inkscape:original-d="m 29.104167,34.395833 c 14.552329,2.64e-4 29.104412,2.64e-4 43.656243,0" />
    <path
       style="fill:none;stroke:#000000;stroke-width:0.170596;stroke-linecap:butt;stroke-linejoin:miter;stroke-miterlimit:4;stroke-dasharray:0.341189, 0.341189;stroke-dashoffset:0;stroke-opacity:0.5"
       d="m 88.63541,34.395833 h 41.01042"
       id="path3873"
       inkscape:path-effect="#path-effect3875"
       inkscape:original-d="m 88.63541,34.395833 c 13.67042,2.64e-4 27.34057,2.64e-4 41.01042,0" />
    <path
       style="fill:none;stroke:#000000;stroke-width:0.166006;stroke-linecap:butt;stroke-linejoin:miter;stroke-miterlimit:4;stroke-dasharray:0.498017, 0.498017;stroke-dashoffset:0;stroke-opacity:0.5;marker-end:url(#marker4105)"
       d="M 107.15624,64.822917 V 31.750002"
       id="path4023"
       inkscape:path-effect="#path-effect4025"
       inkscape:original-d="m 107.15624,64.822917 c 2.4e-4,-11.024017 2.4e-4,-22.048323 0,-33.072915" />
    <text
       xml:space="preserve"
       style="font-size:2.11667px;line-height:1.25;font-family:sans-serif;stroke-width:0.264583"
       x="32.845413"
       y="44.826828"
       id="text4325"><tspan
         sodipodi:role="line"
         x="32.845413"
         y="44.826828"
         style="stroke-width:0.264583"
         id="tspan4327">$\textcolor{blue}{\Omega_w(t)}$</tspan></text>
    <text
       id="text4325-3"
       y="25.728853"
       x="84.268005"
       style="font-size:2.11667px;line-height:1.25;font-family:sans-serif;stroke-width:0.264583"
       xml:space="preserve"><tspan
         id="tspan4327-6"
         style="stroke-width:0.264583"
         y="25.728853"
         x="84.268005"
         sodipodi:role="line">$\textcolor{black}{\Omega_b}$</tspan></text>
    <text
       id="text4325-7"
       y="30.209654"
       x="33.740437"
       style="font-size:2.11667px;line-height:1.25;font-family:sans-serif;stroke-width:0.264583"
       xml:space="preserve"><tspan
         id="tspan4327-5"
         style="stroke-width:0.264583"
         y="30.209654"
         x="33.740437"
         sodipodi:role="line">$\textcolor{blue}{\zeta(r, t)}$</tspan></text>
    <text
       xml:space="preserve"
       style="font-size:1.23152px;line-height:1.25;font-family:sans-serif;stroke-width:0.15394"
       x="217.015"
       y="34.900131"
       id="text4325-7-3"
       transform="scale(0.58182048,1.7187432)"><tspan
         sodipodi:role="line"
         x="217.015"
         y="34.900131"
         style="stroke-width:0.15394"
         id="tspan4327-5-5">$\textcolor{red}{r}$</tspan></text>
    <text
       xml:space="preserve"
       style="font-size:1.64848px;line-height:1.25;font-family:sans-serif;stroke-width:0.20606"
       x="138.70312"
       y="38.146599"
       id="text4325-7-6"
       transform="scale(0.77881055,1.2840093)"><tspan
         sodipodi:role="line"
         x="138.70312"
         y="38.146599"
         style="stroke-width:0.20606"
         id="tspan4327-5-2">$\textcolor{black}{h(r, t)}$</tspan></text>
    <text
       xml:space="preserve"
       style="font-size:2.11667px;line-height:1.25;font-family:sans-serif;stroke-width:0.264583"
       x="73.387878"
       y="32.970119"
       id="text4325-7-0"><tspan
         sodipodi:role="line"
         x="73.387878"
         y="32.970119"
         style="stroke-width:0.264583"
         id="tspan4327-5-9">$\textcolor{blue}{\zeta_{out}}$</tspan></text>
    <text
       xml:space="preserve"
       style="font-size:2.11667px;line-height:1.25;font-family:sans-serif;stroke-width:0.264583"
       x="81.964813"
       y="14.392017"
       id="text4325-7-06"><tspan
         sodipodi:role="line"
         x="81.964813"
         y="14.392017"
         style="stroke-width:0.264583"
         id="tspan4327-5-26">$\textcolor{black}{z}$</tspan></text>
    <text
       xml:space="preserve"
       style="font-size:1.79747px;line-height:1.25;font-family:sans-serif;stroke-width:0.224682"
       x="99.92791"
       y="45.655411"
       id="text4325-7-0-3-1"
       transform="scale(0.67737378,1.4762898)"><tspan
         id="tspan4480-8"
         sodipodi:role="line"
         x="99.92791"
         y="45.655411"
         style="stroke-width:0.224682">$\textcolor{red}{-R_0}$</tspan></text>
    <text
       transform="scale(0.71562234,1.3973851)"
       id="text4325-7-0-3-1-7"
       y="48.28867"
       x="122.78884"
       style="font-size:1.89896px;line-height:1.25;font-family:sans-serif;stroke-width:0.237369"
       xml:space="preserve"><tspan
         style="stroke-width:0.237369"
         y="48.28867"
         x="122.78884"
         sodipodi:role="line"
         id="tspan4480-8-9">$\textcolor{red}{R_0}$</tspan></text>
    <text
       xml:space="preserve"
       style="font-size:2.11667px;line-height:1.25;font-family:sans-serif;stroke-width:0.264583"
       x="29.339117"
       y="36.687824"
       id="text4540"><tspan
         sodipodi:role="line"
         x="29.339117"
         y="36.687824"
         style="stroke-width:0.264583"
         id="tspan4673">$z=h_0$</tspan></text>
    <text
       id="text4540-2"
       y="67.308395"
       x="80.165298"
       style="font-size:2.11667px;line-height:1.25;font-family:sans-serif;stroke-width:0.264583"
       xml:space="preserve"><tspan
         style="stroke-width:0.264583"
         y="67.308395"
         x="80.165298"
         id="tspan4538-0"
         sodipodi:role="line">$0$</tspan></text>
    <path
       id="path6781"
       d="m 28.726188,63.916257 v -1.056935 l 0.503727,-0.169326 c 2.768789,-0.930724 5.399217,-1.477398 8.354,-1.736188 1.16381,-0.10193 1.685178,-0.122672 3.179362,-0.126479 0.784372,-0.002 1.458515,0.0032 1.498094,0.0116 l 0.07196,0.01524 v 2.059518 2.059516 H 35.52976 28.726189 Z"
       style="fill:#d38d5f;fill-opacity:1;stroke:none;stroke-width:0.0141974;stroke-miterlimit:4;stroke-dasharray:none;stroke-opacity:1" />
    <path
       id="path6783"
       d="m 42.112389,62.955618 v -2.021535 l 0.124023,0.01004 c 0.06821,0.0055 0.326005,0.02329 0.57287,0.0395 1.619018,0.106309 3.243025,0.35469 4.949662,0.757021 0.897679,0.211623 1.343572,0.332917 4.634808,1.26079 2.810775,0.792421 4.697218,1.156285 6.609449,1.274856 0.942549,0.05845 2.503371,0.04204 3.638021,-0.03823 1.346324,-0.09525 2.34179,-0.210571 5.433407,-0.629433 3.667307,-0.496858 4.853373,-0.606445 6.791758,-0.62753 1.201484,-0.01307 1.835693,0.01591 2.88207,0.13169 0.519133,0.05745 1.84867,0.245093 2.002091,0.282576 0.03849,0.0094 0.04134,0.06432 0.04134,0.795956 v 0.785855 H 60.95214 42.112389 Z m 27.356028,1.467603 v -0.126336 h -0.141743 -0.14174 v 0.126336 0.126336 h 0.14174 0.141743 z m 0,-0.806603 v -0.116616 h -0.141743 -0.14174 v 0.116616 0.116618 h 0.14174 0.141743 z"
       style="fill:#d38d5f;fill-opacity:1;stroke:none;stroke-width:0.0133628;stroke-miterlimit:4;stroke-dasharray:none;stroke-opacity:1" />
    <path
       id="path6787"
       d="m 79.543708,64.244552 c -1.14e-4,-0.318102 -0.0068,-0.615757 -0.01479,-0.661458 l -0.01458,-0.08309 0.658527,0.09118 0.658524,0.09118 0.0062,0.570277 0.0062,0.570277 H 80.19384 79.543891 Z"
       style="fill:#d38d5f;fill-opacity:1;stroke:none;stroke-width:0.0121914;stroke-miterlimit:4;stroke-dasharray:none;stroke-opacity:1" />
    <path
       id="path6785"
       d="m 80.579799,64.226177 c 0,-0.463266 0.0088,-0.771561 0.02207,-0.771561 0.01214,0 0.09985,0.01581 0.194895,0.03514 0.326141,0.0663 1.684824,0.279921 2.074508,0.326158 0.68009,0.08069 0.913397,0.09492 1.771763,0.108031 1.786864,0.0273 2.810682,-0.121382 6.434386,-0.934421 0.639993,-0.143593 1.18154,-0.261077 1.203439,-0.261077 0.02191,0 0.03982,0.01532 0.03982,0.03404 0,0.02647 0.0315,0.03403 0.14174,0.03403 h 0.14174 v -0.07473 c 0,-0.07257 0.004,-0.07557 0.135837,-0.1032 1.095439,-0.229503 2.183696,-0.401283 3.195076,-0.504342 0.29426,-0.02999 2.6674,-0.05624 2.98912,-0.03307 l 0.22368,0.01611 v 1.450233 1.450232 h -9.284046 -9.284039 z m 12.024365,0.35174 v -0.124811 h -0.14174 -0.14174 v 0.124811 0.124811 h 0.14174 0.14174 z m 0,-0.953104 v -0.124811 h -0.14174 -0.14174 v 0.124811 0.124811 h 0.14174 0.14174 z"
       style="fill:#d38d5f;fill-opacity:1;stroke:none;stroke-width:0.014439;stroke-miterlimit:4;stroke-dasharray:none;stroke-opacity:1" />
    <path
       id="path6789"
       d="m 99.131495,63.527282 v -1.46019 l 0.115348,0.01245 c 0.06345,0.0071 0.317515,0.02787 0.564593,0.04685 1.822354,0.138694 3.075614,0.340243 8.074364,1.298482 1.0879,0.208546 2.69094,0.500759 3.06448,0.558573 l 0.17471,0.02728 0.007,0.08367 c 0.007,0.07875 0.0128,0.08408 0.0985,0.09072 0.0871,0.0065 0.0911,0.0039 0.0911,-0.06268 0,-0.08545 -0.0278,-0.08479 0.50996,-0.01186 2.71995,0.367698 4.84696,0.440633 7.27299,0.249342 3.63671,-0.286758 7.4857,-1.282371 10.57576,-2.735623 0.19991,-0.09404 0.36907,-0.170952 0.37592,-0.170952 0.007,0 0.0124,0.764475 0.0124,1.698835 0,0.934365 -0.009,1.69884 -0.0208,1.69884 -0.0114,0 -0.36744,-0.118 -0.79117,-0.262209 -0.42372,-0.144209 -0.78593,-0.262209 -0.80488,-0.262209 -0.0548,0 -0.0406,0.08201 0.0469,0.269918 0.0447,0.09606 0.0889,0.205521 0.0983,0.243115 0.009,0.03736 0.0227,0.0864 0.0296,0.108335 0.012,0.03795 -0.41109,0.03973 -8.64619,0.03973 h -8.6588 v -0.19384 -0.193841 h -0.0971 -0.0971 v 0.193841 0.19384 h -5.99809 -5.998102 z"
       style="fill:#d38d5f;fill-opacity:1;stroke:none;stroke-width:0.0146749;stroke-miterlimit:4;stroke-dasharray:none;stroke-opacity:1" />
    <path
       style="fill:#d38d5f;fill-opacity:1;stroke-width:0.0326908;stroke-miterlimit:4;stroke-dasharray:none"
       d="m 151.6466,195.17561 v -0.45773 h 0.52086 0.52086 v 0.45773 0.45772 h -0.52086 -0.52086 z"
       id="path4890"
       transform="matrix(0.26458333,0,0,0.26458333,29.066774,12.783844)" />
    <path
       style="fill:#d38d5f;fill-opacity:1;stroke-width:0.0326908;stroke-miterlimit:4;stroke-dasharray:none"
       d="m 151.6466,192.11358 v -0.42615 h 0.52086 0.52086 v 0.42615 0.42616 h -0.52086 -0.52086 z"
       id="path4892"
       transform="matrix(0.26458333,0,0,0.26458333,29.066774,12.783844)" />
    <path
       style="fill:#d38d5f;fill-opacity:1;stroke-width:0.0326908;stroke-miterlimit:4;stroke-dasharray:none"
       d="m 151.6466,192.11358 v -0.42615 h 0.52086 0.52086 v 0.42615 0.42616 h -0.52086 -0.52086 z"
       id="path4894"
       transform="matrix(0.26458333,0,0,0.26458333,29.066774,12.783844)" />
    <path
       style="fill:#d38d5f;fill-opacity:1;stroke-width:0.0326908;stroke-miterlimit:4;stroke-dasharray:none"
       d="m 126.74002,195.42815 c 0,-0.75378 0.008,-0.93124 0.042,-0.93124 0.0231,0 0.59486,-0.0428 1.27059,-0.0952 4.48528,-0.34745 8.00322,-0.76162 18.76422,-2.20912 5.23261,-0.70385 7.32795,-0.97717 9.65958,-1.25998 7.6005,-0.9219 11.87499,-1.20194 18.34058,-1.20153 4.73364,3e-4 7.29183,0.20451 13.67652,1.09174 l 0.14994,0.0208 v 2.75785 2.75784 h -30.9517 -30.95171 z m 25.97986,-0.25254 v -0.48929 h -0.55242 -0.55243 v 0.48929 0.48929 h 0.55243 0.55242 z m -0.55242,-3.48818 h 0.51908 l 0.01,0.43405 0.01,0.43405 0.007,-0.44984 0.007,-0.44983 h -0.55242 -0.55243 l 0.007,0.44983 0.007,0.44984 0.01,-0.43405 0.01,-0.43405 z"
       id="path4896"
       transform="matrix(0.26458333,0,0,0.26458333,29.066774,12.783844)" />
    <path
       style="fill:#d38d5f;fill-opacity:1;stroke-width:0.0326908;stroke-miterlimit:4;stroke-dasharray:none"
       d="m 126.74002,195.42815 c 0,-0.66353 0.0101,-0.93124 0.0352,-0.93124 0.0194,0 0.59111,-0.0429 1.27059,-0.0954 4.49994,-0.34731 7.96972,-0.75678 19.11826,-2.25619 10.63019,-1.42968 14.76344,-1.89925 19.16133,-2.17687 3.992,-0.252 9.7929,-0.31638 12.91101,-0.14331 2.37754,0.13197 4.90274,0.39312 8.11279,0.839 0.56426,0.0784 1.0863,0.15083 1.16009,0.161 l 0.13416,0.0185 v 2.75785 2.75784 h -30.9517 -30.95171 z m 25.97986,-0.25254 v -0.48929 h -0.55242 -0.55243 v 0.48929 0.48929 h 0.55243 0.55242 z m -0.55245,-3.48818 h 0.51905 l 0.01,0.41826 0.01,0.41827 0.007,-0.43405 0.007,-0.43405 h -0.55242 -0.55243 l 0.007,0.44983 0.007,0.44984 0.01,-0.43405 0.01,-0.43405 z"
       id="path4898"
       transform="matrix(0.26458333,0,0,0.26458333,29.066774,12.783844)" />
    <path
       style="fill:#d38d5f;fill-opacity:1;stroke-width:0.0326908;stroke-miterlimit:4;stroke-dasharray:none"
       d="m 126.74002,195.42815 c 0,-0.51218 0.008,-0.93124 0.0178,-0.93124 0.0861,0 1.95993,-0.14725 2.83905,-0.2231 3.71156,-0.32022 7.59659,-0.78753 16.38341,-1.97068 1.21534,-0.16365 2.63587,-0.3547 3.15673,-0.42457 10.2386,-1.37335 14.98138,-1.86029 19.99786,-2.0532 2.65783,-0.10221 7.80071,-0.12049 9.50175,-0.0338 2.74842,0.14009 5.08874,0.37396 8.70214,0.8696 0.69742,0.0957 1.27629,0.17393 1.28636,0.17393 0.0101,0 0.0183,1.24296 0.0183,2.76214 v 2.76213 h -30.9517 -30.95171 z m 25.97986,-0.25254 v -0.48929 h -0.55242 -0.55243 v 0.48929 0.48929 h 0.55243 0.55242 z m -1.08148,-3.33824 c -0.006,-0.10851 -0.0112,-0.0197 -0.0112,0.1973 0,0.21702 0.005,0.3058 0.0112,0.19729 0.006,-0.10851 0.006,-0.28608 0,-0.39459 z m 1.07224,-0.0943 c -0.008,-0.0393 -0.014,-0.0146 -0.0144,0.0549 -3.5e-4,0.0694 0.006,0.10158 0.0137,0.0714 0.008,-0.0302 0.008,-0.087 6.3e-4,-0.12627 z"
       id="path4900"
       transform="matrix(0.26458333,0,0,0.26458333,29.066774,12.783844)" />
    <path
       style="fill:#d38d5f;fill-opacity:1;stroke-width:0.0326908;stroke-miterlimit:4;stroke-dasharray:none"
       d="m 126.74002,195.42815 c 0,-0.51218 0.009,-0.93124 0.0194,-0.93124 0.0107,0 0.57533,-0.0429 1.2548,-0.0954 4.48845,-0.34642 7.94802,-0.75257 18.55005,-2.17772 11.54374,-1.55175 15.54578,-2.00417 20.23462,-2.28746 3.68981,-0.22293 9.53891,-0.27492 12.50063,-0.11111 2.32717,0.12872 4.9197,0.40025 8.2821,0.86743 0.56373,0.0783 1.03326,0.14241 1.04339,0.14241 0.0101,0 0.0184,1.24296 0.0184,2.76214 v 2.76213 H 157.69171 126.74 Z m 24.89847,-0.4814 c -0.006,-0.13456 -0.0108,-0.0245 -0.0108,0.24464 0,0.26911 0.005,0.3792 0.0108,0.24465 0.006,-0.13456 0.006,-0.35474 0,-0.48929 z m 1.0717,0.60038 c -0.008,-0.0307 -0.0151,-0.0132 -0.0157,0.0388 -6.4e-4,0.0521 0.006,0.0772 0.0146,0.0558 0.009,-0.0214 0.009,-0.064 0.001,-0.0947 z m -1.07216,-3.66241 c -0.007,-0.0651 -0.0124,-0.0118 -0.0124,0.11838 0,0.13021 0.006,0.18348 0.0124,0.11838 0.007,-0.0651 0.007,-0.17165 0,-0.23676 z m 1.07216,-0.12567 c -0.008,-0.0307 -0.0151,-0.0132 -0.0157,0.0389 -6.4e-4,0.0521 0.006,0.0772 0.0146,0.0558 0.009,-0.0214 0.009,-0.064 0.001,-0.0947 z"
       id="path4902"
       transform="matrix(0.26458333,0,0,0.26458333,29.066774,12.783844)" />
    <path
       style="fill:#d38d5f;fill-opacity:1;stroke-width:0.0326908;stroke-miterlimit:4;stroke-dasharray:none"
       d="m 126.74002,195.42815 c 0,-0.51218 0.005,-0.93124 0.0104,-0.93124 0.0734,0 2.68876,-0.2105 3.3515,-0.26975 3.2818,-0.29339 6.87305,-0.72327 13.9843,-1.67397 1.2327,-0.1648 3.45582,-0.46193 4.94027,-0.66029 11.1579,-1.49096 15.1792,-1.8941 20.96067,-2.10129 1.4859,-0.0532 6.40259,-0.0743 7.68663,-0.0329 3.13434,0.10105 6.09415,0.38686 10.50552,1.01443 0.23957,0.0341 0.44199,0.062 0.44984,0.062 0.008,0 0.0143,1.24296 0.0143,2.76214 v 2.76213 h -30.9517 -30.95171 z m 25.9692,0.13416 c -0.009,-0.0217 -0.0159,-0.004 -0.0159,0.0395 0,0.0434 0.007,0.0612 0.0159,0.0395 0.009,-0.0217 0.009,-0.0572 0,-0.0789 z m -1.07092,-0.53665 c -0.006,-0.0911 -0.0116,-0.0166 -0.0116,0.16573 0,0.1823 0.005,0.25688 0.0116,0.16573 0.006,-0.0911 0.006,-0.2403 0,-0.33146 z m -9.4e-4,-3.09322 c -0.008,-0.0393 -0.014,-0.0146 -0.0144,0.0549 -3.5e-4,0.0694 0.006,0.10157 0.0137,0.0714 0.008,-0.0302 0.008,-0.087 6.4e-4,-0.12627 z m 1.07252,-0.15623 c -0.0101,-0.0252 -0.0176,-0.0177 -0.0191,0.0191 -10e-4,0.0333 0.006,0.0519 0.0166,0.0414 0.0105,-0.0105 0.0116,-0.0377 0.002,-0.0605 z"
       id="path4904"
       transform="matrix(0.26458333,0,0,0.26458333,29.066774,12.783844)" />
    <path
       style="fill:#d38d5f;fill-opacity:1;stroke-width:0.0326908;stroke-miterlimit:4;stroke-dasharray:none"
       d="m 126.74002,195.43066 v -0.92872 l 0.1973,-0.0183 c 0.10851,-0.0101 0.39617,-0.0331 0.63924,-0.0511 3.04485,-0.22586 5.80414,-0.50998 9.81742,-1.01089 2.62786,-0.32799 4.21986,-0.53728 11.03276,-1.45038 13.99565,-1.87578 18.27619,-2.24 26.3271,-2.24012 3.65651,-6e-5 5.42116,0.0896 8.72835,0.44362 1.22843,0.13148 4.55583,0.55833 5.05865,0.64894 l 0.10259,0.0185 v 2.75862 2.75862 h -30.9517 -30.95171 z m 25.96986,0.13362 c -0.0101,-0.0252 -0.0176,-0.0177 -0.0191,0.0191 -10e-4,0.0333 0.006,0.0519 0.0166,0.0414 0.0105,-0.0105 0.0116,-0.0377 0.002,-0.0605 z m -1.07201,-0.47548 c -0.007,-0.0564 -0.0127,-0.0103 -0.0127,0.10259 0,0.11286 0.006,0.15902 0.0127,0.1026 0.007,-0.0564 0.007,-0.14876 0,-0.20519 z m -0.002,-3.12516 c -0.009,-0.0217 -0.0159,-0.004 -0.0159,0.0395 0,0.0434 0.007,0.0612 0.0159,0.0395 0.009,-0.0217 0.009,-0.0572 0,-0.0789 z m 1.07394,-0.18743 c -0.0101,-0.0252 -0.0176,-0.0177 -0.0191,0.0191 -0.001,0.0333 0.006,0.0519 0.0166,0.0414 0.0105,-0.0105 0.0116,-0.0377 0.002,-0.0605 z"
       id="path4906"
       transform="matrix(0.26458333,0,0,0.26458333,29.066774,12.783844)" />
    <path
       style="fill:#d38d5f;fill-opacity:1;stroke-width:0.0326908;stroke-miterlimit:4;stroke-dasharray:none"
       d="m 203.79957,194.65475 c 0,-0.93755 0.0107,-1.70463 0.0237,-1.70462 0.013,1e-5 0.3504,0.0346 0.74972,0.0768 1.81614,0.19212 2.84327,0.23768 5.87151,0.26048 3.85574,0.029 5.75283,-0.0837 8.91776,-0.52982 3.35391,-0.47277 6.85877,-1.17271 15.53109,-3.10163 3.6537,-0.81266 4.05495,-0.89476 4.11784,-0.84257 0.027,0.0224 0.049,0.066 0.049,0.0969 0,0.0928 0.16983,0.1255 0.65184,0.1255 h 0.45302 v -0.2345 c 0,-0.2595 0.0254,-0.30626 0.197,-0.36213 0.15543,-0.0506 2.33478,-0.48528 3.49637,-0.69734 2.76054,-0.50396 5.37006,-0.89153 7.84446,-1.16507 1.31112,-0.14494 1.41894,-0.15178 3.04624,-0.19324 3.55288,-0.0905 8.85992,-0.0964 9.8411,-0.0108 0.19889,0.0173 0.22886,0.0132 0.22886,-0.0316 0,-0.0593 -0.0132,-0.059 0.48929,-0.01 l 0.37881,0.0371 0.008,4.99552 0.008,4.99552 h -30.9518 -30.95181 z m 35.28408,0.87599 c -0.006,-0.12587 -0.0109,-0.0229 -0.0109,0.22886 0,0.25175 0.005,0.35474 0.0109,0.22887 0.006,-0.12588 0.006,-0.33185 0,-0.45773 z m 1.07312,0.1894 c -0.006,-0.0911 -0.0116,-0.0166 -0.0116,0.16573 0,0.1823 0.005,0.25688 0.0116,0.16573 0.006,-0.0911 0.006,-0.24031 0,-0.33146 z m -9.5e-4,-0.34687 c -0.008,-0.0393 -0.014,-0.0146 -0.0144,0.0549 -3.5e-4,0.0695 0.006,0.10157 0.0137,0.0714 0.008,-0.0302 0.008,-0.087 6.3e-4,-0.12627 z m -1.07214,-3.45698 c -0.006,-0.13456 -0.0108,-0.0245 -0.0108,0.24465 0,0.26911 0.005,0.3792 0.0108,0.24464 0.006,-0.13455 0.006,-0.35474 0,-0.48929 z"
       id="path4908"
       transform="matrix(0.26458333,0,0,0.26458333,29.066774,12.783844)" />
    <path
       style="fill:#d38d5f;fill-opacity:1;stroke-width:0.0326908;stroke-miterlimit:4;stroke-dasharray:none"
       d="m 278.97069,192.16033 v -4.23061 l 0.071,0.0158 c 0.0391,0.009 0.58241,0.10191 1.20744,0.20711 3.20065,0.53873 8.02665,1.42626 15.3417,2.82144 6.69029,1.27601 11.74263,2.20459 13.7855,2.53367 l 0.74822,0.12053 0.0219,0.25094 c 0.0289,0.33119 0.0738,0.37864 0.38632,0.40768 0.31063,0.0289 0.35241,0.003 0.35241,-0.21503 0,-0.25119 0.0436,-0.28252 0.36161,-0.25973 0.13967,0.01 0.78665,0.0896 1.43772,0.17683 5.68482,0.76178 10.07544,1.14544 14.86818,1.2992 2.1885,0.0702 5.90979,0.0404 8.31798,-0.0666 1.36996,-0.0609 3.90795,-0.22154 4.7791,-0.3025 l 0.22431,-0.0208 v 0.73058 0.73058 H 325.8809 310.88773 l -0.0106,-0.26043 -0.0106,-0.26043 -0.006,0.26043 -0.006,0.26043 h -0.34601 -0.34601 l -0.0105,-0.27621 -0.0105,-0.27622 -0.006,0.292 -0.006,0.292 h -15.57844 -15.57845 z"
       id="path4910"
       transform="matrix(0.26458333,0,0,0.26458333,29.066774,12.783844)" />
    <rect
       style="fill:#d38d5f;fill-opacity:1;stroke-width:0.274;stroke-miterlimit:4;stroke-dasharray:none"
       id="rect4956"
       width="0.26458332"
       height="0.26458332"
       x="111.12499"
       y="64.029167" />
    <rect
       style="fill:#d38d5f;fill-opacity:1;stroke-width:0.257502;stroke-miterlimit:4;stroke-dasharray:none"
       id="rect4960"
       width="0.79374999"
       height="0.70104462"
       x="110.8604"
       y="64.293755" />
  </g>
  <g
     inkscape:groupmode="layer"
     id="layer2"
     inkscape:label="Calque 2">
    <path
       transform="translate(-29.066773,-12.783844)"
       style="fill:none;stroke:#ce171b;stroke-width:0.158848;stroke-linecap:butt;stroke-linejoin:miter;stroke-miterlimit:4;stroke-dasharray:none;stroke-dashoffset:0;stroke-opacity:1;marker-end:url(#Arrow2Lend)"
       d="M 29.104167,64.822916 H 129.64583"
       id="path894"
       inkscape:path-effect="#path-effect896"
       inkscape:original-d="m 29.104167,64.822916 c 33.514133,2.64e-4 67.02802,2.64e-4 100.541663,0" />
  </g>
</svg>
