<?xml version="1.0" encoding="UTF-8" standalone="no"?>
<svg
   xmlns:osb="http://www.openswatchbook.org/uri/2009/osb"
   xmlns:dc="http://purl.org/dc/elements/1.1/"
   xmlns:cc="http://creativecommons.org/ns#"
   xmlns:rdf="http://www.w3.org/1999/02/22-rdf-syntax-ns#"
   xmlns:svg="http://www.w3.org/2000/svg"
   xmlns="http://www.w3.org/2000/svg"
   xmlns:sodipodi="http://sodipodi.sourceforge.net/DTD/sodipodi-0.dtd"
   xmlns:inkscape="http://www.inkscape.org/namespaces/inkscape"
   width="58.509945mm"
   height="52.902729mm"
   viewBox="0 0 58.509955 52.902729"
   version="1.1"
   id="svg8"
   inkscape:version="1.0 (6e3e5246a0, 2020-05-07)"
   sodipodi:docname="SWE_Fond.svg">
  <defs
     id="defs2">
    <inkscape:path-effect
       lpeversion="1"
       is_visible="true"
       id="path-effect6798"
       effect="spiro" />
    <inkscape:path-effect
       lpeversion="1"
       is_visible="true"
       id="path-effect6757"
       effect="spiro" />
    <inkscape:path-effect
       lpeversion="1"
       is_visible="true"
       id="path-effect6753"
       effect="spiro" />
    <inkscape:path-effect
       lpeversion="1"
       is_visible="true"
       id="path-effect6741"
       effect="spiro" />
    <linearGradient
       osb:paint="solid"
       id="linearGradient6735">
      <stop
         id="stop6733"
         offset="0"
         style="stop-color:#00ffff;stop-opacity:1;" />
    </linearGradient>
    <inkscape:path-effect
       lpeversion="1"
       is_visible="true"
       id="path-effect6731"
       effect="spiro" />
    <inkscape:path-effect
       effect="spiro"
       id="path-effect6695"
       is_visible="true"
       lpeversion="1" />
    <linearGradient
       osb:paint="gradient"
       id="linearGradient6579">
      <stop
         id="stop6575"
         offset="0"
         style="stop-color:#000000;stop-opacity:1;" />
      <stop
         id="stop6577"
         offset="1"
         style="stop-color:#000000;stop-opacity:0;" />
    </linearGradient>
    <inkscape:path-effect
       lpeversion="1"
       is_visible="true"
       id="path-effect5964"
       effect="spiro" />
    <linearGradient
       id="linearGradient4422"
       osb:paint="solid">
      <stop
         style="stop-color:#9b9b9b;stop-opacity:1;"
         offset="0"
         id="stop4420" />
    </linearGradient>
    <linearGradient
       id="linearGradient4416"
       osb:paint="solid">
      <stop
         style="stop-color:#9b9b9b;stop-opacity:1;"
         offset="0"
         id="stop4414" />
    </linearGradient>
    <linearGradient
       id="linearGradient4410"
       osb:paint="solid">
      <stop
         style="stop-color:#000000;stop-opacity:1;"
         offset="0"
         id="stop4408" />
    </linearGradient>
    <rect
       x="30.427082"
       y="43.65625"
       width="10.583333"
       height="3.96875"
       id="rect4319" />
    <marker
       inkscape:stockid="Arrow2Lend"
       orient="auto"
       refY="0"
       refX="0"
       id="marker4105"
       style="overflow:visible"
       inkscape:isstock="true">
      <path
         id="path4103"
         style="fill:#0000ff;fill-opacity:1;fill-rule:evenodd;stroke:#0000ff;stroke-width:0.625;stroke-linejoin:round;stroke-opacity:1"
         d="M 8.7185878,4.0337352 -2.2072895,0.01601326 8.7185884,-4.0017078 c -1.7454984,2.3720609 -1.7354408,5.6174519 -6e-7,8.035443 z"
         transform="matrix(-1.1,0,0,-1.1,-1.1,0)" />
    </marker>
    <marker
       inkscape:stockid="Arrow2Lend"
       orient="auto"
       refY="0"
       refX="0"
       id="marker4029"
       style="overflow:visible"
       inkscape:isstock="true">
      <path
         id="path4027"
         style="fill:#000000;fill-opacity:1;fill-rule:evenodd;stroke:#000000;stroke-width:0.625;stroke-linejoin:round;stroke-opacity:1"
         d="M 8.7185878,4.0337352 -2.2072895,0.01601326 8.7185884,-4.0017078 c -1.7454984,2.3720609 -1.7354408,5.6174519 -6e-7,8.035443 z"
         transform="matrix(-1.1,0,0,-1.1,-1.1,0)" />
    </marker>
    <inkscape:path-effect
       effect="spiro"
       id="path-effect4025"
       is_visible="true"
       lpeversion="1" />
    <inkscape:path-effect
       effect="spiro"
       id="path-effect3875"
       is_visible="true"
       lpeversion="1" />
    <inkscape:path-effect
       effect="spiro"
       id="path-effect3871"
       is_visible="true"
       lpeversion="1" />
    <marker
       inkscape:stockid="DotM"
       orient="auto"
       refY="0"
       refX="0"
       id="marker3771"
       style="overflow:visible"
       inkscape:isstock="true">
      <path
         id="path3769"
         d="m -2.5,-1 c 0,2.76 -2.24,5 -5,5 -2.76,0 -5,-2.24 -5,-5 0,-2.76 2.24,-5 5,-5 2.76,0 5,2.24 5,5 z"
         style="fill:#0000ff;fill-opacity:1;fill-rule:evenodd;stroke:#0000ff;stroke-width:1pt;stroke-opacity:1"
         transform="matrix(0.4,0,0,0.4,2.96,0.4)" />
    </marker>
    <marker
       inkscape:stockid="DotL"
       orient="auto"
       refY="0"
       refX="0"
       id="DotL"
       style="overflow:visible"
       inkscape:isstock="true">
      <path
         id="path959"
         d="m -2.5,-1 c 0,2.76 -2.24,5 -5,5 -2.76,0 -5,-2.24 -5,-5 0,-2.76 2.24,-5 5,-5 2.76,0 5,2.24 5,5 z"
         style="fill:#000000;fill-opacity:1;fill-rule:evenodd;stroke:#000000;stroke-width:1pt;stroke-opacity:1"
         transform="matrix(0.8,0,0,0.8,5.92,0.8)" />
    </marker>
    <inkscape:path-effect
       effect="spiro"
       id="path-effect3627"
       is_visible="true"
       lpeversion="1" />
    <inkscape:path-effect
       effect="spiro"
       id="path-effect3623"
       is_visible="true"
       lpeversion="1" />
    <linearGradient
       id="linearGradient3441"
       osb:paint="solid">
      <stop
         style="stop-color:#9b9b9b;stop-opacity:1;"
         offset="0"
         id="stop3439" />
    </linearGradient>
    <linearGradient
       id="linearGradient3423"
       osb:paint="solid">
      <stop
         style="stop-color:#9b9b9b;stop-opacity:1;"
         offset="0"
         id="stop3421" />
    </linearGradient>
    <marker
       inkscape:isstock="true"
       style="overflow:visible"
       id="marker1336"
       refX="0"
       refY="0"
       orient="auto"
       inkscape:stockid="Arrow2Lend"
       inkscape:collect="always">
      <path
         transform="matrix(-1.1,0,0,-1.1,-1.1,0)"
         d="M 8.7185878,4.0337352 -2.2072895,0.01601326 8.7185884,-4.0017078 c -1.7454984,2.3720609 -1.7354408,5.6174519 -6e-7,8.035443 z"
         style="fill:#000000;fill-opacity:1;fill-rule:evenodd;stroke:#000000;stroke-width:0.625;stroke-linejoin:round;stroke-opacity:1"
         id="path1334" />
    </marker>
    <inkscape:path-effect
       effect="spiro"
       id="path-effect1332"
       is_visible="true"
       lpeversion="1" />
    <marker
       inkscape:stockid="Arrow2Lend"
       orient="auto"
       refY="0"
       refX="0"
       id="Arrow2Lend"
       style="overflow:visible"
       inkscape:isstock="true"
       inkscape:collect="always">
      <path
         id="path919"
         style="fill:#ce171b;fill-opacity:1;fill-rule:evenodd;stroke:#ce171b;stroke-width:0.625;stroke-linejoin:round;stroke-opacity:1"
         d="M 8.7185878,4.0337352 -2.2072895,0.01601326 8.7185884,-4.0017078 c -1.7454984,2.3720609 -1.7354408,5.6174519 -6e-7,8.035443 z"
         transform="matrix(-1.1,0,0,-1.1,-1.1,0)" />
    </marker>
    <inkscape:path-effect
       effect="spiro"
       id="path-effect896"
       is_visible="true"
       lpeversion="1" />
    <inkscape:path-effect
       effect="spiro"
       id="path-effect892"
       is_visible="true"
       lpeversion="1" />
    <inkscape:path-effect
       effect="spiro"
       id="path-effect888"
       is_visible="true"
       lpeversion="1" />
    <linearGradient
       id="linearGradient880"
       osb:paint="solid">
      <stop
         style="stop-color:#580000;stop-opacity:1;"
         offset="0"
         id="stop878" />
    </linearGradient>
    <marker
       inkscape:isstock="true"
       style="overflow:visible"
       id="marker4105-3"
       refX="0"
       refY="0"
       orient="auto"
       inkscape:stockid="Arrow2Lend">
      <path
         transform="matrix(-1.1,0,0,-1.1,-1.1,0)"
         d="M 8.7185878,4.0337352 -2.2072895,0.01601326 8.7185884,-4.0017078 c -1.7454984,2.3720609 -1.7354408,5.6174519 -6e-7,8.035443 z"
         style="fill:#000000;fill-opacity:0.5;fill-rule:evenodd;stroke:#000000;stroke-width:0.625;stroke-linejoin:round;stroke-opacity:0.5"
         id="path4103-6" />
    </marker>
  </defs>
  <sodipodi:namedview
     showguides="false"
     id="base"
     pagecolor="#ffffff"
     bordercolor="#666666"
     borderopacity="1.0"
     inkscape:pageopacity="0.0"
     inkscape:pageshadow="2"
     inkscape:zoom="2.8"
     inkscape:cx="174.02298"
     inkscape:cy="119.11844"
     inkscape:document-units="mm"
     inkscape:current-layer="layer2"
     inkscape:document-rotation="0"
     showgrid="true"
     inkscape:window-width="1920"
     inkscape:window-height="1046"
     inkscape:window-x="0"
     inkscape:window-y="1114"
     inkscape:window-maximized="1"
     inkscape:snap-to-guides="false"
     fit-margin-top="0"
     fit-margin-left="0"
     fit-margin-right="0"
     fit-margin-bottom="0">
    <inkscape:grid
       type="xygrid"
       id="grid48"
       originx="-29.068118"
       originy="-14.275771" />
  </sodipodi:namedview>
  <metadata
     id="metadata5">
    <rdf:RDF>
      <cc:Work
         rdf:about="">
        <dc:format>image/svg+xml</dc:format>
        <dc:type
           rdf:resource="http://purl.org/dc/dcmitype/StillImage" />
        <dc:title></dc:title>
      </cc:Work>
    </rdf:RDF>
  </metadata>
  <g
     inkscape:label="Calque 1"
     inkscape:groupmode="layer"
     id="layer1"
     transform="translate(-29.068097,-14.275773)">
    <path
       style="fill:none;stroke:#0000ff;stroke-width:0.279;stroke-linecap:butt;stroke-linejoin:miter;stroke-miterlimit:4;stroke-dasharray:none;stroke-opacity:1"
       d="m 29.104168,31.749997 c 4.243681,-1.05952 8.75463,-1.029578 12.983872,0.08618 2.516916,0.664013 4.917943,1.69952 7.381602,2.539854 2.46366,0.840334 5.04378,1.491508 7.642557,1.342719 2.550229,-0.14601 4.987666,-1.05243 7.376357,-1.957492 2.388692,-0.905063 4.816853,-1.828514 7.364713,-2.011258 3.1376,-0.225043 6.346053,0.734751 8.844641,2.645833"
       id="path886"
       sodipodi:nodetypes="csssc"
       inkscape:original-d="m 29.104168,31.749997 c 6.388091,-1.322652 6.596368,1.409358 12.983872,0.08618 6.387502,-1.323181 12.07624,1.237004 15.024159,3.882573 2.947918,2.645569 9.827672,-2.645569 14.74107,-3.96875 4.913394,-1.323181 5.896721,1.764154 8.844641,2.645833"
       inkscape:path-effect="#path-effect888" />
    <path
       sodipodi:nodetypes="cc"
       style="fill:none;stroke:#ce171b;stroke-width:0.158848;stroke-linecap:butt;stroke-linejoin:miter;stroke-miterlimit:4;stroke-dasharray:none;stroke-dashoffset:0;stroke-opacity:1;marker-end:url(#Arrow2Lend)"
       d="m 29.104167,64.822916 58.208326,3e-6"
       id="path894"
       inkscape:path-effect="#path-effect896"
       inkscape:original-d="m 29.104167,64.822916 c 33.514133,2.64e-4 -2501.412367,-189.625006 58.208326,3e-6" />
    <path
       style="fill:none;fill-opacity:1;stroke:#000000;stroke-width:0.165286;stroke-linecap:butt;stroke-linejoin:miter;stroke-miterlimit:4;stroke-dasharray:none;stroke-dashoffset:0;stroke-opacity:1;marker-end:url(#marker1336);paint-order:normal"
       d="M 80.697917,64.822917 V 14.552082"
       id="path1330"
       inkscape:path-effect="#path-effect1332"
       inkscape:original-d="m 80.697917,64.822917 c 2.64e-4,-16.756681 2.64e-4,-33.513627 0,-50.270835" />
    <path
       style="fill:none;stroke:#000000;stroke-width:0.174173;stroke-linecap:butt;stroke-linejoin:miter;stroke-miterlimit:4;stroke-dasharray:0.348348, 0.174173;stroke-dashoffset:0;stroke-opacity:0.5"
       d="M 29.104167,34.395833 H 80.69791"
       id="path3869"
       inkscape:original-d="m 29.104167,34.395833 c 17.198208,2.64e-4 34.396124,2.64e-4 51.593743,0"
       inkscape:path-effect="#path-effect3871" />
    <text
       xml:space="preserve"
       style="font-size:2.11667px;line-height:1.25;font-family:sans-serif;stroke-width:0.264583"
       x="32.845413"
       y="44.826828"
       id="text4325"><tspan
         sodipodi:role="line"
         x="32.845413"
         y="44.826828"
         style="stroke-width:0.264583"
         id="tspan4327">$\textcolor{blue}{\Omega_w(t)}$</tspan></text>
    <text
       id="text4325-7"
       y="29.471209"
       x="34.884285"
       style="font-size:2.11667px;line-height:1.25;font-family:sans-serif;stroke-width:0.264583"
       xml:space="preserve"><tspan
         id="tspan4327-5"
         style="stroke-width:0.264583"
         y="29.471209"
         x="34.884285"
         sodipodi:role="line">$\textcolor{blue}{\zeta(r, t)}$</tspan></text>
    <text
       id="text4540-2"
       y="66.867409"
       x="80.165298"
       style="font-size:2.11667px;line-height:1.25;font-family:sans-serif;stroke-width:0.264583"
       xml:space="preserve"><tspan
         style="stroke-width:0.264583"
         y="66.867409"
         x="80.165298"
         id="tspan4538-0"
         sodipodi:role="line">$0$</tspan></text>
    <g
       inkscape:transform-center-y="1.1352258"
       inkscape:transform-center-x="-7.9328786"
       id="g6698">
      <path
         sodipodi:nodetypes="csssc"
         inkscape:original-d="m 29.10416,62.177085 c 5.665816,-0.424064 11.389716,-1.373028 17.055003,-1.797621 5.665287,-0.424593 7.642974,2.196904 11.464066,3.294959 3.821089,1.098058 12.641511,-0.943035 18.96187,-1.414951 6.320358,-0.471917 1.240318,0.576364 3.989003,0.998761"
         inkscape:path-effect="#path-effect6695"
         id="path6693"
         d="m 29.10416,62.177085 c 5.246284,-2.549845 11.392396,-3.197654 17.055003,-1.797621 3.866198,0.955885 7.508943,2.827832 11.464066,3.294959 3.158994,0.373099 6.346227,-0.171791 9.480789,-0.71305 3.134563,-0.54126 6.322971,-1.082409 9.481081,-0.701901 1.364445,0.164396 2.708073,0.500812 3.989003,0.998761"
         style="mix-blend-mode:normal;fill:none;fill-opacity:1;stroke:#ffceb1;stroke-width:0.165;stroke-linecap:butt;stroke-linejoin:miter;stroke-miterlimit:4;stroke-dasharray:none;stroke-opacity:1" />
    </g>
    <path
       id="path6729"
       d="m 29.162508,61.652446 c -0.007,0.528398 -0.01532,1.056778 -0.02504,1.585132 -0.0097,0.528474 -0.02082,1.056922 -0.0333,1.585338"
       style="fill:none;fill-opacity:1;stroke:none;stroke-width:0.264583px;stroke-linecap:butt;stroke-linejoin:miter;stroke-opacity:1"
       inkscape:original-d="m 29.162508,61.652446 c -0.0083,0.528375 -0.01914,1.056722 -0.02504,1.585132 -0.0014,0.12306 0.04864,1.48269 -0.0333,1.585338"
       inkscape:path-effect="#path-effect6731" />
    <circle
       r="0.0027534612"
       cy="60.875107"
       cx="129.58784"
       style="fill:#000000;stroke:#000000;stroke-width:0.264583"
       id="path6749" />
    <path
       transform="matrix(0.26458333,0,0,0.26458333,29.066774,12.783844)"
       id="path6763"
       d="m 47.26324,187.01839 v -9.33036 h 0.246424 c 0.135533,0 1.009417,0.0612 1.941964,0.1359 6.465813,0.51826 12.366607,1.58502 18.749112,3.3895 3.437006,0.97172 6.615094,2.01116 14.6875,4.80376 7.763056,2.68558 11.056546,3.71706 15.3125,4.79565 4.84008,1.22663 8.4404,1.83561 13.01336,2.20116 2.58833,0.20691 8.29597,0.20557 11.317,-0.003 5.99004,-0.41286 10.22885,-0.97427 21.38372,-2.8322 13.83582,-2.30447 18.40233,-2.86692 25.41848,-3.13077 5.9058,-0.2221 10.98564,0.18062 17.59055,1.39453 1.79194,0.32935 6.86322,1.34027 7.6385,1.52268 l 0.20089,0.0473 v 3.16794 3.16794 h -73.75 -73.75 z m 103.39286,6.74107 v -0.53572 h -0.49107 -0.49108 v 0.53572 0.53571 h 0.49108 0.49107 z m 0,-3.70536 v -0.49107 h -0.49107 -0.49108 v 0.49107 0.49107 h 0.49108 0.49107 z"
       style="fill:#784421;fill-opacity:1;stroke:none;stroke-width:0.0556805;stroke-miterlimit:4;stroke-dasharray:none;stroke-opacity:1" />
    <path
       transform="matrix(0.26458333,0,0,0.26458333,29.066774,12.783844)"
       id="path6779"
       d="m 0.7222348,191.59309 v -4.77551 l 0.5133929,-0.25861 c 0.775625,-0.39071 3.8283846,-1.71033 5.2901785,-2.28678 9.5377568,-3.76122 18.9043808,-5.83457 29.7321428,-6.58136 1.80085,-0.1242 10.082011,-0.15749 10.647322,-0.0428 l 0.334821,0.0679 v 9.32631 9.32632 H 23.981163 0.7222348 Z"
       style="fill:#784421;fill-opacity:1;stroke:none;stroke-width:0.0556805;stroke-miterlimit:4;stroke-dasharray:none;stroke-opacity:1" />
    <path
       transform="matrix(0.26458333,0,0,0.26458333,29.066774,12.783844)"
       id="path6781"
       d="m 0.76522422,191.57761 v -4.76451 l 1.71874998,-0.7633 c 9.4473118,-4.19557 18.4225278,-6.6599 28.5044648,-7.82649 3.971005,-0.45949 5.749951,-0.55299 10.848214,-0.57015 2.676339,-0.009 4.976562,0.0145 5.111607,0.0523 l 0.245536,0.0687 v 9.28402 9.28401 H 23.97951 0.76522422 Z"
       style="fill:#d38d5f;fill-opacity:1;stroke:none;stroke-width:0.0556805;stroke-miterlimit:4;stroke-dasharray:none;stroke-opacity:1" />
    <path
       transform="matrix(0.26458333,0,0,0.26458333,29.066774,12.783844)"
       id="path6783"
       d="m 47.30623,186.97958 v -9.2865 l 0.46875,0.0461 c 0.257812,0.0253 1.232142,0.10699 2.165178,0.18145 6.119122,0.48836 12.2571,1.62937 18.707381,3.47759 3.392805,0.97215 5.078069,1.52935 17.517385,5.7918 10.623403,3.64021 17.753266,5.31172 24.980596,5.85641 3.56239,0.26848 9.46156,0.19312 13.75,-0.17565 5.08847,-0.43757 8.85086,-0.96732 20.53571,-2.89148 13.86069,-2.28246 18.34346,-2.78588 25.66964,-2.88274 4.54104,-0.06 6.93805,0.0731 10.89286,0.60496 1.96208,0.26388 6.9871,1.1259 7.56696,1.29809 0.14547,0.0432 0.15625,0.2955 0.15625,3.65645 v 3.61005 H 118.51159 47.30623 Z m 103.39286,6.74185 v -0.58036 h -0.53572 -0.53571 v 0.58036 0.58036 h 0.53571 0.53572 z m 0,-3.70536 v -0.53571 h -0.53572 -0.53571 v 0.53571 0.53572 h 0.53571 0.53572 z"
       style="fill:#d38d5f;fill-opacity:1;stroke:none;stroke-width:0.0556805;stroke-miterlimit:4;stroke-dasharray:none;stroke-opacity:1" />
    <path
       transform="matrix(0.26458333,0,0,0.26458333,29.066774,12.783844)"
       id="path6787"
       d="m 189.779,193.13032 c -4.3e-4,-1.75558 -0.0256,-3.39832 -0.0559,-3.65054 l -0.0551,-0.45858 2.48892,0.50323 2.48891,0.50322 0.0235,3.14732 0.0235,3.14732 h -2.4565 -2.4565 z"
       style="fill:#d38d5f;fill-opacity:1;stroke:none;stroke-width:0.0556805;stroke-miterlimit:4;stroke-dasharray:none;stroke-opacity:1" />
    <path
       inkscape:original-d="m 71.437479,62.177085 c 2.4e-4,-10.142096 2.4e-4,-20.284458 0,-30.427083"
       inkscape:path-effect="#path-effect4025"
       id="path4023"
       d="M 71.437479,62.177085 V 31.750002"
       style="fill:none;stroke:#000000;stroke-width:0.159227;stroke-linecap:butt;stroke-linejoin:miter;stroke-miterlimit:4;stroke-dasharray:0.477681, 0.477681;stroke-dashoffset:0;stroke-opacity:0.5;marker-end:url(#marker4105-3)" />
    <text
       transform="scale(0.77881055,1.2840093)"
       id="text4325-7-6"
       y="36.085995"
       x="92.839905"
       style="font-size:1.64848px;line-height:1.25;font-family:sans-serif;stroke-width:0.20606"
       xml:space="preserve"><tspan
         id="tspan4327-5-2"
         style="stroke-width:0.20606"
         y="36.085995"
         x="92.839905"
         sodipodi:role="line">$\textcolor{black}{h(r, t)}$</tspan></text>
  </g>
  <g
     inkscape:label="Calque 2"
     id="layer2"
     inkscape:groupmode="layer"
     transform="translate(-0.00132208,-1.4919286)">
    <text
       xml:space="preserve"
       style="font-size:2.11667px;line-height:1.25;font-family:sans-serif;stroke-width:0.264583"
       x="0.52681875"
       y="23.911171"
       id="text4540"><tspan
         sodipodi:role="line"
         id="tspan4538"
         x="0.52681875"
         y="23.911171"
         style="stroke-width:0.264583">$z=h_0$</tspan></text>
    <text
       xml:space="preserve"
       style="font-size:1.69959px;line-height:1.25;font-family:sans-serif;stroke-width:0.212449"
       x="67.979904"
       y="40.558178"
       id="text4325-7-3"
       transform="scale(0.80295662,1.2453973)"><tspan
         sodipodi:role="line"
         x="67.979904"
         y="40.558178"
         style="stroke-width:0.212449"
         id="tspan4327-5-5">$\textcolor{red}{r}$</tspan></text>
    <path
       id="path6796"
       d="M 12.472802,52.039075 V 47.011992"
       style="fill:none;stroke:#000000;stroke-width:0.165;stroke-linecap:butt;stroke-linejoin:miter;stroke-miterlimit:4;stroke-dasharray:0.165, 0.33;stroke-dashoffset:0;stroke-opacity:1;marker-end:url(#marker4029)"
       inkscape:original-d="m 12.472802,52.039075 c 2.65e-4,-1.675432 2.65e-4,-3.351125 0,-5.027083"
       inkscape:path-effect="#path-effect6798" />
    <text
       id="text6826"
       y="50.900974"
       x="12.823074"
       style="font-size:2.11667px;line-height:1.25;font-family:sans-serif;stroke-width:0.264583"
       xml:space="preserve"><tspan
         style="stroke-width:0.264583"
         y="50.900974"
         x="12.823074"
         id="tspan6824"
         sodipodi:role="line">$\fond(r, t)$</tspan></text>
  </g>
</svg>
